<?xml version="1.0" encoding="utf-8"?>
<!-- Generator: Adobe Illustrator 24.0.3, SVG Export Plug-In . SVG Version: 6.00 Build 0)  -->
<svg version="1.1" id="Capa_1" xmlns="http://www.w3.org/2000/svg" xmlns:xlink="http://www.w3.org/1999/xlink" x="0px" y="0px"
	 viewBox="0 0 971 343" style="enable-background:new 0 0 971 343;" xml:space="preserve">
<style type="text/css">
	.st0{fill:#EFF178;}
</style>
<path class="st0" d="M164.6,201h38.6c0.9,5.5,1.4,10.2,1.4,14.2c0,2-0.1,4.1-0.3,6.2c-0.2,2.1-0.6,4.5-1.1,7.4h-84.9l-3.2-6.1
	l42.2-70.8h-34.6c-0.7-3-1.1-5.6-1.3-7.8s-0.3-4.3-0.3-6.4c0-2,0.1-4.1,0.3-6.2c0.2-2.1,0.6-4.5,1.3-7.4H205l2,6.5L164.6,201z"/>
<path class="st0" d="M227.1,194.5c0-6.6,1.4-12.1,4.2-16.4c2.8-4.3,6.5-7.8,10.9-10.3c4.4-2.6,9.4-4.3,14.8-5.3
	c5.4-1,10.6-1.5,15.8-1.5H285c-0.1-2.4-0.8-4.4-2-6.1c-1.2-1.6-2.8-2.9-4.7-3.7c-1.9-0.9-4-1.5-6.3-1.8c-2.3-0.3-4.7-0.5-7.1-0.5
	c-3.2,0-7,0.4-11.3,1.1c-4.3,0.7-8.8,1.9-13.3,3.5c-1.2-2.3-2.2-4.4-3.1-6.3c-0.9-1.9-1.6-3.8-2-5.8c-0.5-2-0.8-4-1-6.1
	c-0.2-2.1-0.3-4.5-0.3-7.2c6.5-2.1,12.9-3.8,19.3-4.9c6.4-1.1,12.2-1.6,17.3-1.6c7,0,13.3,0.9,19,2.5c5.7,1.7,10.5,4.3,14.4,7.8
	c4,3.5,7,8,9.2,13.4c2.1,5.5,3.2,12,3.2,19.5v59.2c-5.1,1.5-11.3,3-18.6,4.4c-7.3,1.5-15,2.2-23,2.2c-7,0-13.4-0.6-19.3-1.9
	c-5.9-1.3-10.9-3.3-15.1-6.2c-4.2-2.8-7.4-6.6-9.8-11.2C228.2,207,227.1,201.3,227.1,194.5z M274.8,205.9c1.2,0,3-0.1,5.2-0.4
	c2.3-0.3,4-0.5,5.1-0.8v-22.2h-11.5c-4.7,0-8.7,1-11.9,3c-3.2,2-4.9,4.9-4.9,8.5c0,2.7,0.6,4.8,1.8,6.4c1.2,1.6,2.7,2.7,4.5,3.5
	c1.8,0.8,3.8,1.3,5.9,1.6C271.1,205.7,273,205.9,274.8,205.9z"/>
<path class="st0" d="M347.9,124.6c6.2-0.9,12.6-1.7,19.1-2.1c6.5-0.5,12.8-0.7,18.9-0.7c6.2,0,12.3,0.6,18.2,1.7
	c5.9,1.1,11.2,3.2,16,6.3c4.7,3,8.5,7.2,11.4,12.5c2.9,5.3,4.3,12.2,4.3,20.7c0,7.7-1.3,14.2-4,19.4c-2.6,5.2-6.1,9.5-10.4,12.7
	c-4.3,3.2-9.2,5.6-14.7,7c-5.5,1.4-11,2.1-16.7,2.1c-2.3,0-4.2-0.1-5.9-0.2c-1.6-0.1-2.6-0.3-3-0.4v24.9c-3.5,0.7-6.6,1.1-9.4,1.3
	c-2.8,0.2-5.2,0.3-7.4,0.3c-2.3,0-4.8-0.1-7.4-0.3c-2.6-0.2-5.7-0.6-9.2-1.3L347.9,124.6L347.9,124.6z M381.3,178.2
	c0.7,0.1,1.5,0.2,2.5,0.3c1,0.1,1.9,0.1,2.5,0.1c4.7,0,8.6-1.2,11.6-3.5c3-2.4,4.5-6.4,4.5-12c0-4.9-1.5-8.6-4.5-11.2
	c-3-2.6-6.8-4-11.2-4c-0.5,0-1.3,0-2.3,0c-1,0-2.1,0.1-3.1,0.2L381.3,178.2L381.3,178.2z"/>
<path class="st0" d="M462.4,124.6c6.2-0.9,12.6-1.7,19.1-2.1c6.5-0.5,12.8-0.7,18.9-0.7c6.2,0,12.3,0.6,18.2,1.7
	c5.9,1.1,11.2,3.2,16,6.3c4.7,3,8.5,7.2,11.4,12.5c2.9,5.3,4.3,12.2,4.3,20.7c0,7.7-1.3,14.2-4,19.4s-6.1,9.5-10.4,12.7
	s-9.2,5.6-14.7,7c-5.5,1.4-11,2.1-16.7,2.1c-2.3,0-4.2-0.1-5.9-0.2c-1.6-0.1-2.6-0.3-3-0.4v24.9c-3.5,0.7-6.6,1.1-9.4,1.3
	c-2.8,0.2-5.2,0.3-7.4,0.3c-2.3,0-4.8-0.1-7.4-0.3c-2.6-0.2-5.7-0.6-9.2-1.3L462.4,124.6L462.4,124.6z M495.7,178.2
	c0.7,0.1,1.5,0.2,2.5,0.3c1,0.1,1.9,0.1,2.5,0.1c4.7,0,8.6-1.2,11.6-3.5c3-2.4,4.5-6.4,4.5-12c0-4.9-1.5-8.6-4.5-11.2
	c-3-2.6-6.8-4-11.2-4c-0.5,0-1.3,0-2.3,0c-1,0-2.1,0.1-3.1,0.2L495.7,178.2L495.7,178.2z"/>
<path class="st0" d="M610.9,228.5c-3.5,0.5-6.7,0.9-9.5,1.2c-2.8,0.3-5.4,0.4-7.7,0.4c-2.3,0-4.9-0.1-7.7-0.4
	c-2.8-0.3-5.9-0.7-9.3-1.2V124.2c3-0.7,5.9-1.1,8.8-1.4c2.9-0.3,5.7-0.4,8.4-0.4c2.6,0,5.3,0.1,8.3,0.4c3,0.3,5.9,0.8,8.7,1.4V228.5
	z"/>
<path class="st0" d="M686.1,122.2c5.9,0,11.9,0.5,17.8,1.5c5.9,1,11.3,3.1,16.1,6.4c4.8,3.2,8.7,7.9,11.7,14
	c3,6.1,4.5,14.1,4.5,24.1v60.4c-3.5,0.7-6.7,1.1-9.5,1.3c-2.8,0.2-5.3,0.3-7.5,0.3c-2.3,0-4.9-0.1-7.7-0.3c-2.8-0.2-6-0.6-9.5-1.3
	v-56.8c0-7.1-1.3-12.2-4-15.4c-2.7-3.1-6.8-4.7-12.3-4.7c-1.5,0-3.1,0.1-4.8,0.4c-1.7,0.3-2.7,0.5-3.1,0.8v75.6
	c-3.5,0.7-6.7,1.1-9.5,1.3c-2.8,0.2-5.3,0.3-7.5,0.3c-2.3,0-4.9-0.1-7.7-0.3c-2.8-0.2-6-0.6-9.5-1.3v-99.3
	c4.7-1.6,10.4-3.2,17.2-4.8C667.6,123,676,122.2,686.1,122.2z"/>
<path class="st0" d="M816.7,231.1c-9.7,0-18-1.4-24.8-4.3s-12.4-6.8-16.7-11.8c-4.3-5-7.4-10.9-9.4-17.6s-2.9-14-2.9-21.6
	c0-7.4,1.2-14.4,3.5-21c2.4-6.6,5.9-12.3,10.5-17.2s10.4-8.7,17.3-11.5c6.9-2.8,14.8-4.2,23.9-4.2c4.7,0,9.9,0.5,15.6,1.6
	c5.7,1.1,11.9,3,18.6,5.7c-0.1,2.3-0.4,4.4-0.8,6.5c-0.4,2-0.9,4.1-1.5,6.2c-0.6,2.1-1.3,4.3-2.2,6.7c-0.9,2.4-1.9,5-3.1,8
	c-4.6-1.9-8.8-3.3-12.7-4.1c-3.9-0.9-7.3-1.3-10.1-1.3c-4.4,0-8.2,0.7-11.3,2c-3.1,1.3-5.6,3.2-7.5,5.5c-1.9,2.3-3.3,5-4.1,8
	c-0.9,3-1.3,6.2-1.3,9.4c0,9,2,15.7,5.9,19.9c3.9,4.2,9.6,6.4,17.2,6.4h3.6v-29.7c3.4-0.7,6.4-1.1,9-1.4c2.6-0.3,5.1-0.4,7.6-0.4
	c4.7,0,10.3,0.6,16.8,1.8v51.3c-3.9,1.5-9.4,3.1-16.4,4.9C834.2,230.2,826,231.1,816.7,231.1z"/>
</svg>
